<?xml version="1.0" encoding="UTF-8"?>
<svg xmlns="http://www.w3.org/2000/svg" xmlns:xlink="http://www.w3.org/1999/xlink" width="100pt" height="100pt" viewBox="0 0 100 100" version="1.1">
<g id="surface53">
<path style=" stroke:none;fill-rule:nonzero;fill:rgb(78.431374%,52.156866%,26.666668%);fill-opacity:1;" d="M 50 100 C 77.613281 100 100 77.613281 100 50 C 100 22.386719 77.613281 0 50 0 C 22.386719 0 0 22.386719 0 50 C 0 77.613281 22.386719 100 50 100 Z M 50 100 "/>
<path style=" stroke:none;fill-rule:evenodd;fill:rgb(100%,100%,100%);fill-opacity:1;" d="M 23.808594 23.710938 C 31.28125 31.441406 42.148438 48.882812 44.402344 56.769531 C 45.671875 61.21875 47.539062 73.816406 47.558594 78.058594 L 47.570312 81 L 51.214844 81 C 54.796875 81 54.949219 80.914062 59.6875 76.226562 C 65.699219 70.285156 68.671875 65.402344 70.070312 59.179688 C 70.667969 56.519531 71.660156 52.632812 72.269531 50.539062 C 74.824219 41.808594 74.574219 36.953125 71.355469 32.726562 C 69.679688 30.523438 65.757812 27.949219 65.09375 28.609375 C 64.914062 28.792969 65.53125 30.449219 66.464844 32.296875 C 69.054688 37.414062 70.390625 42.691406 70.390625 47.785156 C 70.390625 52.078125 70.160156 52.78125 66.976562 58.085938 C 60.953125 68.117188 51.03125 80.109375 51.03125 77.351562 C 51.03125 76.722656 51.378906 73.121094 51.808594 69.359375 C 52.460938 63.605469 52.40625 61.640625 51.480469 57.046875 C 49.789062 48.683594 45.742188 41.148438 39.757812 35.214844 C 33.945312 29.453125 20.171875 18 19.054688 18 C 18.628906 18 20.769531 20.570312 23.808594 23.710938 Z M 23.808594 23.710938 "/>
</g>
</svg>
