<svg width="100" height="100" viewBox="0 0 100 100" fill="none" xmlns="http://www.w3.org/2000/svg">
<circle cx="50" cy="50" r="50" fill="#44AD4C"/>
<path fill-rule="evenodd" clip-rule="evenodd" d="M26.8068 23.7115C34.2832 31.4432 45.148 48.8838 47.4009 56.7692C48.6726 61.2194 50.541 73.8145 50.5597 78.0577L50.5722 81H54.2163C57.7955 81 57.9477 80.9142 62.6872 76.2279C68.6984 70.2845 71.6725 65.4016 73.0714 59.1778C73.6682 56.5207 74.6584 52.6327 75.2711 50.5385C77.8248 41.8092 77.5744 36.9526 74.3541 32.7247C72.6779 30.5252 68.7572 27.9478 68.0947 28.611C67.9142 28.7917 68.531 30.4498 69.4646 32.2968C72.0535 37.4144 73.3916 42.6925 73.3916 47.7845C73.3916 52.0795 73.1585 52.7829 69.9756 58.0853C63.9519 68.1189 54.0296 80.1083 54.0296 77.3529C54.0296 76.7208 54.3795 73.1229 54.8069 69.3588C55.4604 63.6072 55.4078 61.6403 54.4791 57.0455C52.7884 48.6831 48.7438 41.1494 42.7589 35.2163C36.9455 29.4522 23.1716 18 22.0534 18C21.6302 18 23.769 20.5705 26.8068 23.7115Z" fill="white"/>
</svg>
