<?xml version="1.0" encoding="UTF-8"?>
<svg xmlns="http://www.w3.org/2000/svg" xmlns:xlink="http://www.w3.org/1999/xlink" width="100pt" height="100pt" viewBox="0 0 100 100" version="1.1">
<g id="surface794">
<path style=" stroke:none;fill-rule:nonzero;fill:rgb(3.921569%,51.372552%,65.098041%);fill-opacity:1;" d="M 50 100 C 77.613281 100 100 77.613281 100 50 C 100 22.386719 77.613281 0 50 0 C 22.386719 0 0 22.386719 0 50 C 0 77.613281 22.386719 100 50 100 Z M 50 100 "/>
<path style=" stroke:none;fill-rule:evenodd;fill:rgb(100%,100%,100%);fill-opacity:1;" d="M 26.808594 24.710938 C 34.28125 32.441406 45.148438 49.882812 47.402344 57.769531 C 48.671875 62.21875 50.539062 74.816406 50.558594 79.058594 L 50.570312 82 L 54.214844 82 C 57.796875 82 57.949219 81.914062 62.6875 77.226562 C 68.699219 71.285156 71.671875 66.402344 73.070312 60.179688 C 73.667969 57.519531 74.660156 53.632812 75.269531 51.539062 C 77.824219 42.808594 77.574219 37.953125 74.355469 33.726562 C 72.679688 31.523438 68.757812 28.949219 68.09375 29.609375 C 67.914062 29.792969 68.53125 31.449219 69.464844 33.296875 C 72.054688 38.414062 73.390625 43.691406 73.390625 48.785156 C 73.390625 53.078125 73.160156 53.78125 69.976562 59.085938 C 63.953125 69.117188 54.03125 81.109375 54.03125 78.351562 C 54.03125 77.722656 54.378906 74.121094 54.808594 70.359375 C 55.460938 64.605469 55.40625 62.640625 54.480469 58.046875 C 52.789062 49.683594 48.742188 42.148438 42.757812 36.214844 C 36.945312 30.453125 23.171875 19 22.054688 19 C 21.628906 19 23.769531 21.570312 26.808594 24.710938 Z M 26.808594 24.710938 "/>
</g>
</svg>
