<svg width="100" height="100" viewBox="0 0 100 100" fill="none" xmlns="http://www.w3.org/2000/svg">
<g clip-path="url(#clip0_7379_390)">
<path d="M50 100C77.6142 100 100 77.6142 100 50C100 22.3858 77.6142 0 50 0C22.3858 0 0 22.3858 0 50C0 77.6142 22.3858 100 50 100Z" fill="#0A83A6"/>
<path fill-rule="evenodd" clip-rule="evenodd" d="M26.8068 24.7115C34.2832 32.4432 45.148 49.8838 47.4009 57.7692C48.6726 62.2194 50.541 74.8145 50.5597 79.0577L50.5722 82H54.2163C57.7955 82 57.9477 81.9142 62.6872 77.2279C68.6984 71.2845 71.6725 66.4016 73.0714 60.1778C73.6682 57.5207 74.6584 53.6327 75.2711 51.5385C77.8248 42.8092 77.5744 37.9526 74.3541 33.7247C72.6779 31.5252 68.7572 28.9478 68.0947 29.611C67.9142 29.7917 68.531 31.4498 69.4646 33.2968C72.0535 38.4144 73.3916 43.6925 73.3916 48.7845C73.3916 53.0795 73.1585 53.7829 69.9756 59.0853C63.9519 69.1189 54.0296 81.1083 54.0296 78.3529C54.0296 77.7208 54.3795 74.1229 54.8069 70.3588C55.4604 64.6072 55.4078 62.6403 54.4791 58.0455C52.7884 49.6831 48.7438 42.1494 42.7589 36.2163C36.9455 30.4522 23.1716 19 22.0534 19C21.6302 19 23.769 21.5705 26.8068 24.7115Z" fill="white"/>
</g>
<defs>
<clipPath id="clip0_7379_390">
<rect width="100" height="100" fill="white"/>
</clipPath>
</defs>
</svg>
